<svg width="20" height="24" viewBox="0 0 20 24" fill="none" xmlns="http://www.w3.org/2000/svg">
<path fill-rule="evenodd" clip-rule="evenodd" d="M20 0H0V24H14L20 18V0ZM13 23H1V1H19V17H13V23ZM14 18H18.586L14 22.586V18ZM11 19H3V20H11V19ZM11 16H3V17H11V16ZM17 14V13H3V14H17ZM17 10H13V11H17V10ZM10.994 11H3.003L3 10.211C2.997 9.491 2.994 8.596 4.314 8.291C5.797 7.95 5.55 7.873 5.472 7.728C4.394 5.74 4.762 4.555 5.077 4.025C5.465 3.374 6.166 3 7 3C7.827 3 8.523 3.368 8.91 4.011C9.455 4.915 9.319 6.233 8.531 7.724C8.426 7.92 8.336 7.979 9.65 8.283C11.005 8.595 11.002 9.495 11 10.219L10.994 11ZM4 10H10C9.993 9.453 9.93 9.374 9.46 9.266C8.605 9.068 7.831 8.89 7.559 8.294C7.417 7.983 7.446 7.634 7.646 7.255C8.256 6.104 8.404 5.109 8.053 4.526C7.777 4.068 7.275 4 7 4C6.52 4 6.143 4.19 5.937 4.537C5.585 5.127 5.736 6.117 6.351 7.251C6.555 7.628 6.587 7.978 6.446 8.29C6.177 8.888 5.41 9.064 4.599 9.252C4.074 9.373 4.006 9.454 4 10ZM17 8V7H13V8H17ZM17 4H13V5H17V4Z" fill="#98C1D9"/>
</svg>
